<mxfile host="app.diagrams.net" modified="2022-04-26T13:38:24.680Z" agent="5.0 (Windows NT 10.0; Win64; x64) AppleWebKit/537.36 (KHTML, like Gecko) Chrome/100.0.4896.127 Safari/537.36 Edg/100.0.1185.50" etag="M-CbNraKSftYBjlmxZh3" version="17.4.6" type="github">
  <diagram id="C5RBs43oDa-KdzZeNtuy" name="Page-1">
    <mxGraphModel dx="1038" dy="1754" grid="1" gridSize="10" guides="1" tooltips="1" connect="1" arrows="1" fold="1" page="1" pageScale="1" pageWidth="827" pageHeight="1169" math="0" shadow="0">
      <root>
        <mxCell id="WIyWlLk6GJQsqaUBKTNV-0" />
        <mxCell id="WIyWlLk6GJQsqaUBKTNV-1" parent="WIyWlLk6GJQsqaUBKTNV-0" />
        <mxCell id="mMprPpUedBZFnySxIwwC-0" style="edgeStyle=orthogonalEdgeStyle;rounded=0;orthogonalLoop=1;jettySize=auto;html=1;entryX=0.5;entryY=0;entryDx=0;entryDy=0;strokeWidth=1;" edge="1" parent="WIyWlLk6GJQsqaUBKTNV-1" source="mMprPpUedBZFnySxIwwC-1" target="mMprPpUedBZFnySxIwwC-3">
          <mxGeometry relative="1" as="geometry" />
        </mxCell>
        <mxCell id="mMprPpUedBZFnySxIwwC-1" value="开始" style="strokeWidth=1;html=1;shape=mxgraph.flowchart.start_1;whiteSpace=wrap;" vertex="1" parent="WIyWlLk6GJQsqaUBKTNV-1">
          <mxGeometry x="186.69" y="-990" width="123.31" height="50" as="geometry" />
        </mxCell>
        <mxCell id="mMprPpUedBZFnySxIwwC-2" style="edgeStyle=orthogonalEdgeStyle;rounded=0;orthogonalLoop=1;jettySize=auto;html=1;entryX=0.5;entryY=0;entryDx=0;entryDy=0;strokeWidth=1;" edge="1" parent="WIyWlLk6GJQsqaUBKTNV-1" source="mMprPpUedBZFnySxIwwC-3" target="mMprPpUedBZFnySxIwwC-5">
          <mxGeometry relative="1" as="geometry" />
        </mxCell>
        <mxCell id="mMprPpUedBZFnySxIwwC-3" value="系统初始化" style="rounded=0;whiteSpace=wrap;html=1;strokeColor=#4D4D4D;strokeWidth=1;" vertex="1" parent="WIyWlLk6GJQsqaUBKTNV-1">
          <mxGeometry x="181.69" y="-892" width="133.31" height="42" as="geometry" />
        </mxCell>
        <mxCell id="mMprPpUedBZFnySxIwwC-4" style="edgeStyle=orthogonalEdgeStyle;rounded=0;orthogonalLoop=1;jettySize=auto;html=1;exitX=0.5;exitY=1;exitDx=0;exitDy=0;strokeWidth=1;" edge="1" parent="WIyWlLk6GJQsqaUBKTNV-1" source="mMprPpUedBZFnySxIwwC-5" target="mMprPpUedBZFnySxIwwC-7">
          <mxGeometry relative="1" as="geometry" />
        </mxCell>
        <mxCell id="mMprPpUedBZFnySxIwwC-5" value="设置最大值最小值" style="rounded=0;whiteSpace=wrap;html=1;strokeColor=#4D4D4D;strokeWidth=1;" vertex="1" parent="WIyWlLk6GJQsqaUBKTNV-1">
          <mxGeometry x="181.69" y="-800" width="133.31" height="42" as="geometry" />
        </mxCell>
        <mxCell id="mMprPpUedBZFnySxIwwC-6" style="edgeStyle=orthogonalEdgeStyle;rounded=0;orthogonalLoop=1;jettySize=auto;html=1;exitX=0.5;exitY=1;exitDx=0;exitDy=0;entryX=0.5;entryY=0;entryDx=0;entryDy=0;strokeWidth=1;" edge="1" parent="WIyWlLk6GJQsqaUBKTNV-1" source="mMprPpUedBZFnySxIwwC-7" target="mMprPpUedBZFnySxIwwC-10">
          <mxGeometry relative="1" as="geometry" />
        </mxCell>
        <mxCell id="mMprPpUedBZFnySxIwwC-7" value="读取超声波数据" style="rounded=0;whiteSpace=wrap;html=1;strokeColor=#4D4D4D;strokeWidth=1;" vertex="1" parent="WIyWlLk6GJQsqaUBKTNV-1">
          <mxGeometry x="181.69" y="-720" width="133.31" height="42" as="geometry" />
        </mxCell>
        <mxCell id="mMprPpUedBZFnySxIwwC-8" value="N" style="edgeStyle=orthogonalEdgeStyle;rounded=0;orthogonalLoop=1;jettySize=auto;html=1;exitX=0;exitY=0.5;exitDx=0;exitDy=0;entryX=0;entryY=0.5;entryDx=0;entryDy=0;strokeWidth=1;" edge="1" parent="WIyWlLk6GJQsqaUBKTNV-1" source="mMprPpUedBZFnySxIwwC-10" target="mMprPpUedBZFnySxIwwC-7">
          <mxGeometry relative="1" as="geometry">
            <Array as="points">
              <mxPoint x="140" y="-584" />
              <mxPoint x="140" y="-699" />
            </Array>
          </mxGeometry>
        </mxCell>
        <mxCell id="mMprPpUedBZFnySxIwwC-9" value="Y&lt;br&gt;" style="edgeStyle=orthogonalEdgeStyle;rounded=0;orthogonalLoop=1;jettySize=auto;html=1;exitX=0.5;exitY=1;exitDx=0;exitDy=0;strokeWidth=1;" edge="1" parent="WIyWlLk6GJQsqaUBKTNV-1" source="mMprPpUedBZFnySxIwwC-10" target="mMprPpUedBZFnySxIwwC-12">
          <mxGeometry relative="1" as="geometry">
            <mxPoint x="248" y="-490" as="targetPoint" />
          </mxGeometry>
        </mxCell>
        <mxCell id="mMprPpUedBZFnySxIwwC-10" value="判断是否超出阀值" style="rhombus;whiteSpace=wrap;html=1;strokeColor=#4D4D4D;strokeWidth=1;" vertex="1" parent="WIyWlLk6GJQsqaUBKTNV-1">
          <mxGeometry x="192.52" y="-624" width="111.65" height="80" as="geometry" />
        </mxCell>
        <mxCell id="mMprPpUedBZFnySxIwwC-11" style="edgeStyle=orthogonalEdgeStyle;rounded=0;orthogonalLoop=1;jettySize=auto;html=1;exitX=0.5;exitY=1;exitDx=0;exitDy=0;strokeWidth=1;" edge="1" parent="WIyWlLk6GJQsqaUBKTNV-1" source="mMprPpUedBZFnySxIwwC-12" target="mMprPpUedBZFnySxIwwC-13">
          <mxGeometry relative="1" as="geometry">
            <mxPoint x="248" y="-380" as="targetPoint" />
          </mxGeometry>
        </mxCell>
        <mxCell id="mMprPpUedBZFnySxIwwC-12" value="声光报警" style="whiteSpace=wrap;html=1;strokeColor=#4D4D4D;strokeWidth=1;" vertex="1" name="长方形" parent="WIyWlLk6GJQsqaUBKTNV-1">
          <mxGeometry x="188.35" y="-470" width="120" height="50" as="geometry" />
        </mxCell>
        <mxCell id="mMprPpUedBZFnySxIwwC-13" value="结束" style="ellipse;whiteSpace=wrap;html=1;strokeColor=#4D4D4D;strokeWidth=1;" vertex="1" name="椭圆" parent="WIyWlLk6GJQsqaUBKTNV-1">
          <mxGeometry x="188.35" y="-380" width="120" height="50" as="geometry" />
        </mxCell>
      </root>
    </mxGraphModel>
  </diagram>
</mxfile>
